<?xml version="1.0" standalone="no"?>
<!DOCTYPE svg PUBLIC "-//W3C//DTD SVG 20010904//EN"
 "http://www.w3.org/TR/2001/REC-SVG-20010904/DTD/svg10.dtd">
<svg version="1.0" xmlns="http://www.w3.org/2000/svg"
 width="300.000000pt" height="300.000000pt" viewBox="0 0 300.000000 300.000000"
 preserveAspectRatio="xMidYMid meet">
<metadata>
Created by potrace 1.14, written by Peter Selinger 2001-2017
</metadata>
<g transform="translate(0.000000,300.000000) scale(0.100000,-0.100000)"
fill="#000000" stroke="none">
<path d="M0 1500 l0 -1500 1500 0 1500 0 0 1500 0 1500 -1500 0 -1500 0 0
-1500z m937 108 c-5 -742 -8 -783 -62 -893 -34 -70 -119 -147 -193 -176 -61
-23 -246 -38 -316 -25 -33 6 -35 10 -46 60 -6 29 -9 102 -8 162 l3 109 54 8
c72 10 112 34 136 82 19 39 20 63 23 698 l3 657 205 0 206 0 -5 -682z m1494
16 c162 -367 296 -671 297 -675 2 -5 -91 -9 -206 -9 l-210 0 -54 135 -53 135
-296 0 -295 0 -55 -135 -54 -135 -207 0 c-115 0 -208 3 -208 6 0 4 127 293
281 643 155 350 288 651 295 669 l14 32 229 0 228 0 294 -666z"/>
<path d="M1808 1690 l-96 -240 198 0 198 0 -96 240 c-53 132 -98 240 -101 240
-3 0 -50 -108 -103 -240z"/>
</g>
</svg>
